<?xml version="1.0" encoding="UTF-8"?>
<svg id="Layer_1" xmlns="http://www.w3.org/2000/svg" version="1.1" viewBox="0 0 120 130">
  <!-- Generator: Adobe Illustrator 30.2.1, SVG Export Plug-In . SVG Version: 2.1.1 Build 1)  -->
  <defs>
    <style>
      .st0 {
        fill: #54b574;
      }

      .st1 {
        fill: #16a34a;
      }

      .st2 {
        fill: #83d69f;
      }
    </style>
  </defs>
  <path class="st1" d="M71.65,52.16c-.01,3.37-1.48,6.39-3.87,8.43-3.44,2.94-7.93,3.83-12.3,2.04-3.55-1.45-6.93-4.97-6.97-9.37l-.19-11.49c-.07-6.25-5.56-10.75-11.78-10.45-5.69.28-10.66,4.82-10.69,10.65l-.11,17.92c-.02,3.56-2.07,6.76-4.67,8.65-2.97,2.16-6.61,2.75-10.15,1.7-4.55-1.35-8.01-5.55-8-10.41v-18.92c.02-10.53,5.9-20.13,14.21-26.36,12.94-9.7,30.82-8.95,42.86,1.98,2.6-2.14,5.21-3.95,8.2-5.4,17.1-8.31,36.97-.6,45.42,15.99,2.13,4.18,3.54,8.7,3.56,13.45l.07,19.07c.02,6.34-5.57,11.25-11.6,11.13-6.39-.13-11.36-5.14-11.4-11.66l-.11-17.19c-.04-5.85-5.03-10.41-10.72-10.61-6.48-.23-11.65,4.58-11.68,11.05l-.06,9.78Z"/>
  <path class="st2" d="M68.17,94.04c6,4.78,6.27,13.7,1.03,18.92s-14.07,5.06-18.94-.79c-4.83-5.8-3.73-14.53,2.68-18.88,4.65-3.16,10.67-2.88,15.22.75Z"/>
  <path class="st0" d="M35.84,93.31c-8.2-1.16-13.21-9.47-10.45-17.11,1.76-4.86,6.24-7.9,11.11-8.25,5.22-.37,10.14,2.27,12.5,6.99,2.16,4.33,1.65,9.36-1.2,13.25-2.62,3.56-7.12,5.8-11.96,5.12Z"/>
  <path class="st0" d="M95.3,78.84c.84,6.21-2.88,11.66-8.51,13.83-4.31,1.66-9.26.61-12.61-2.35-3.52-3.1-5.14-7.71-4.12-12.44,1.29-6.03,6.8-10.18,12.88-10.01,6,.17,11.5,4.62,12.36,10.98Z"/>
</svg>