<svg xmlns="http://www.w3.org/2000/svg" viewBox="0 0 120 130" fill="#2d3748">
  <!-- Rounded "m" shape -->
  <path d="
    M12,68
    C12,68 12,28 12,28
    C12,12 24,2 40,2
    C52,2 58,12 60,20
    C62,12 68,2 80,2
    C96,2 108,12 108,28
    L108,68
    C108,72 106,74 102,74
    L96,74
    C92,74 90,72 90,68
    L90,40
    C90,30 84,24 78,24
    C72,24 68,30 68,42
    L68,68
    C68,72 66,74 62,74
    L58,74
    C54,74 52,72 52,68
    L52,42
    C52,30 48,24 42,24
    C36,24 30,30 30,40
    L30,68
    C30,72 28,74 24,74
    L18,74
    C14,74 12,72 12,68
    Z
  "/>
  <!-- Three dots -->
  <circle cx="38" cy="90" r="9"/>
  <circle cx="82" cy="90" r="9"/>
  <circle cx="60" cy="108" r="8"/>
</svg>
